<?xml version="1.0" encoding="UTF-8"?>
<svg width="388px" height="77px" viewBox="0 0 388 77" version="1.1" xmlns="http://www.w3.org/2000/svg" xmlns:xlink="http://www.w3.org/1999/xlink">
    <!-- Generator: Sketch 63.1 (92452) - https://sketch.com -->
    <title>Starting Finance Logo</title>
    <desc>Created with Sketch.</desc>
    <g id="✂️-Assets" stroke="none" stroke-width="1" fill="none" fill-rule="evenodd">
        <g id="Icon" transform="translate(-63.000000, -218.000000)" fill="#000000" fill-rule="nonzero">
            <g id="Starting-Finance-Logo" transform="translate(62.000000, 218.000000)">
                <g id="LOGO" transform="translate(0.985359, 0.922401)">
                    <path d="M43.4038067,3.97306003 L43.4038067,55.9976574 C40.7051245,56.5224012 38.0814056,57.1221083 35.4576867,57.7218155 C32.9089312,58.3215227 30.2852123,58.8462665 27.7364568,59.4459736 C29.1607613,52.7742313 30.3601757,43.7786237 29.3106881,33.3587116 C28.7859444,27.58653 27.6614934,22.4140556 26.3871157,17.766325 C24.1382138,10.1200586 21.2896047,4.19795022 19.1156662,0.149926794 C21.2146413,0.299853587 23.6884334,0.449780381 26.3871157,0.824597365 C31.2597365,1.34934114 37.031918,2.3238653 43.4038067,3.97306003 Z" id="Path"></path>
                    <path d="M68.8913616,13.793265 L68.8913616,59.520937 L61.020205,57.5718887 C57.7967789,56.7472914 54.8732064,56.0726208 51.8746706,55.3979502 L51.8746706,6.52181552 C57.2720351,8.39590044 63.0442167,10.7197657 68.8913616,13.793265 Z" id="Path"></path>
                    <path d="M94.6787701,62.8193265 C92.5048316,63.4190337 90.4058565,64.0187408 88.3818448,64.6934114 C84.7836018,63.7188873 81.1853587,62.7443631 77.6620791,61.8448023 L77.6620791,18.890776 C84.1089312,23.0137628 89.8061493,27.4366032 94.6787701,31.934407 C94.6787701,42.2043924 94.6787701,52.5493411 94.6787701,62.8193265 Z" id="Path"></path>
                    <path d="M110.196193,58.4714495 C107.947291,59.0711567 105.623426,59.7458272 103.224597,60.3455344 L103.224597,40.4802343 C108.546999,46.477306 112.669985,52.1745242 115.743485,56.9721816 C113.794436,57.5718887 111.920351,58.0216691 110.196193,58.4714495 Z" id="Path"></path>
                    <path d="M124.289312,66.2676428 C125.113909,64.5434846 126.01347,62.8942899 126.838067,61.1701318 C126.01347,61.5449488 125.113909,61.8448023 124.289312,62.2196193 C122.790044,62.8193265 121.290776,63.4190337 119.791508,63.9437775 C119.116837,64.243631 118.442167,64.4685212 117.767496,64.7683748 C116.118302,65.4430454 114.394143,66.0427526 112.744949,66.6424597 C108.846852,68.0667643 105.023719,69.4910688 101.125622,70.9153734 C97.2275256,72.2647145 93.329429,73.689019 89.4313324,74.9633968 L88.6816984,75.188287 L87.7071742,74.9633968 C81.1103953,73.4641288 74.5885798,71.8149341 67.9918009,70.1657394 L58.1715959,67.6169839 C55.0980966,66.7923865 52.0245974,65.9677892 48.9510981,65.1431918 C45.0530015,65.8178624 41.2298682,66.4175695 37.3317716,66.9423133 C33.2087848,67.5420205 29.085798,68.1417277 24.9628111,68.7414348 C20.8398243,69.341142 16.7168375,69.7909224 12.5938507,70.3156662 C8.47086384,70.84041 4.34787701,71.2152269 0.149926794,71.5900439 C4.12298682,70.465593 8.17101025,69.341142 12.1440703,68.3666179 C16.1920937,67.3171303 20.1651537,66.3426061 24.2131772,65.4430454 C25.1127379,65.2181552 26.0122987,64.993265 26.9118594,64.8433382 C30.0603221,64.0937042 33.2087848,63.4190337 36.3572474,62.7443631 C38.6811127,62.2196193 41.004978,61.7698389 43.2538799,61.2450952 C44.9780381,60.8702782 46.7771596,60.4954612 48.5013177,60.1206442 L49.1010249,59.9707174 L49.7756955,60.1206442 C50.450366,60.270571 51.0500732,60.4204978 51.7247438,60.5704246 C54.3484627,61.1701318 56.9721816,61.8448023 59.6708638,62.4445095 L68.7414348,64.6934114 L69.5660322,64.9183016 C75.8629575,66.5674963 82.0849195,68.1417277 88.3818448,69.8658858 C89.7311859,69.4910688 91.0055637,69.1162518 92.3549048,68.7414348 L92.3549048,68.7414348 C93.1045388,68.5165447 93.8541728,68.2916545 94.6787701,68.0667643 C96.2530015,67.6169839 97.9021962,67.1672035 99.4764275,66.7174231 C101.800293,66.0427526 104.124158,65.368082 106.448023,64.7683748 C108.097218,64.3185944 109.746413,63.8688141 111.470571,63.4190337 C113.794436,62.8193265 116.118302,62.2196193 118.442167,61.6199122 C120.166325,61.1701318 121.890483,60.7953148 123.539678,60.3455344 C124.214348,60.1956076 124.889019,60.0456808 125.56369,59.8207906 C123.989458,59.2210835 122.340264,58.6213763 120.766032,58.0216691 C126.088433,57.6468521 131.410835,57.2720351 136.733236,56.8972182 C132.610249,59.9707174 128.487262,63.1191801 124.289312,66.2676428 Z" id="Path"></path>
                </g>
                <g id="LOGOTIPO" transform="translate(146.864129, 0.247731)">
                    <path d="M6.14699854,33.8834553 C3.82313324,33.058858 2.02401171,32.0093704 0.674670571,30.6600293 L2.09897511,27.8863836 C3.37335286,29.1607613 5.02254758,30.1352855 7.0465593,30.8849195 C9.14553441,31.6345534 11.2445095,32.0093704 13.418448,32.0093704 C16.4919473,32.0093704 18.8158126,31.4096633 20.3900439,30.2852123 C21.9642753,29.1607613 22.7139092,27.6614934 22.7139092,25.8623719 C22.7139092,24.5130307 22.2641288,23.3885798 21.4395315,22.5639824 C20.6149341,21.7393851 19.5654466,21.1396779 18.3660322,20.6898975 C17.1666179,20.2401171 15.4424597,19.7903367 13.2685212,19.265593 C10.6448023,18.5909224 8.62079063,17.9912152 7.0465593,17.3915081 C5.47232796,16.7918009 4.19795022,15.8922401 3.07349927,14.6178624 C1.94904832,13.3434846 1.42430454,11.6942899 1.42430454,9.52035139 C1.42430454,7.79619327 1.87408492,6.22196193 2.77364568,4.79765739 C3.67320644,3.37335286 5.09751098,2.2489019 6.9715959,1.34934114 C8.84568082,0.449780381 11.2445095,0.0749633968 14.0931186,0.0749633968 C16.0421669,0.0749633968 17.9912152,0.374816984 19.8653001,0.899560761 C21.7393851,1.42430454 23.3885798,2.17393851 24.7379209,3.14846266 L23.5385066,6.07203514 C22.114202,5.09751098 20.5399707,4.42284041 18.890776,3.89809663 C17.2415813,3.44831625 15.6673499,3.14846266 14.0931186,3.14846266 C11.0945827,3.14846266 8.77071742,3.74816984 7.27144949,4.87262079 C5.77218155,6.07203514 4.94758419,7.57130307 4.94758419,9.3704246 C4.94758419,10.7197657 5.39736457,11.8442167 6.22196193,12.6688141 C7.0465593,13.4934114 8.09604685,14.168082 9.3704246,14.6178624 C10.6448023,15.0676428 12.3689605,15.5174231 14.4679356,16.0421669 C17.0166911,16.6418741 19.0407028,17.3165447 20.6149341,17.9162518 C22.1891654,18.515959 23.4635432,19.4155198 24.5879941,20.6898975 C25.6374817,21.8893119 26.2371889,23.61347 26.2371889,25.7124451 C26.2371889,27.4366032 25.7874085,29.0108346 24.8128843,30.4351391 C23.9133236,31.8594436 22.4140556,32.9838946 20.5399707,33.8084919 C18.5909224,34.6330893 16.1920937,35.0828697 13.418448,35.0828697 C10.9446559,35.1578331 8.47086384,34.7080527 6.14699854,33.8834553 Z" id="Path"></path>
                    <polygon id="Path" points="40.4802343 3.59824305 28.4111274 3.59824305 28.4111274 0.449780381 56.2225476 0.449780381 56.2225476 3.59824305 44.1534407 3.59824305 44.1534407 34.8579795 40.4802343 34.8579795"></polygon>
                    <path d="M81.8600293,25.6374817 L62.6693997,25.6374817 L58.5464129,34.8579795 L54.7232796,34.8579795 L70.465593,0.449780381 L74.063836,0.449780381 L89.8061493,34.8579795 L85.9830161,34.8579795 L81.8600293,25.6374817 Z M80.5106881,22.7139092 L72.2647145,4.19795022 L64.0187408,22.7139092 L80.5106881,22.7139092 Z" id="Shape"></path>
                    <path d="M119.041874,34.8579795 L111.170717,23.7633968 C110.271157,23.8383602 109.371596,23.9133236 108.397072,23.9133236 L99.1765739,23.9133236 L99.1765739,34.8579795 L95.5033675,34.8579795 L95.5033675,0.449780381 L108.397072,0.449780381 C112.819912,0.449780381 116.268228,1.49926794 118.74202,3.59824305 C121.215813,5.69721816 122.49019,8.54582723 122.49019,12.2190337 C122.49019,14.917716 121.81552,17.1666179 120.466179,19.0407028 C119.116837,20.9147877 117.167789,22.2641288 114.619034,23.0137628 L123.014934,34.8579795 L119.041874,34.8579795 L119.041874,34.8579795 Z M116.193265,18.5909224 C117.992387,17.0916545 118.891947,14.9926794 118.891947,12.2190337 C118.891947,9.44538799 117.992387,7.27144949 116.193265,5.77218155 C114.394143,4.27291362 111.770425,3.52327965 108.397072,3.52327965 L99.2515373,3.52327965 L99.2515373,20.7648609 L108.397072,20.7648609 C111.770425,20.8398243 114.31918,20.0901903 116.193265,18.5909224 Z" id="Shape"></path>
                    <polygon id="Path" points="137.332943 3.59824305 125.263836 3.59824305 125.263836 0.449780381 153.075256 0.449780381 153.075256 3.59824305 141.006149 3.59824305 141.006149 34.8579795 137.332943 34.8579795"></polygon>
                    <polygon id="Path" points="158.847438 0.374816984 162.520644 0.374816984 162.520644 34.7830161 158.847438 34.7830161"></polygon>
                    <polygon id="Path" points="202.476135 0.374816984 202.476135 34.7830161 199.477599 34.7830161 177.363397 6.82166911 177.363397 34.7830161 173.69019 34.7830161 173.69019 0.374816984 176.688726 0.374816984 198.877892 28.336164 198.877892 0.374816984"></polygon>
                    <path d="M238.008785,17.6163982 L241.532064,17.6163982 L241.532064,30.7349927 C239.957833,32.1592972 238.008785,33.2087848 235.834846,33.9584187 C233.660908,34.7080527 231.337042,35.0828697 228.86325,35.0828697 C225.414934,35.0828697 222.341435,34.3332357 219.567789,32.8339678 C216.794143,31.3346999 214.620205,29.2357247 213.045974,26.5370425 C211.471742,23.8383602 210.722108,20.8398243 210.722108,17.5414348 C210.722108,14.2430454 211.471742,11.2445095 213.045974,8.54582723 C214.620205,5.84714495 216.794143,3.74816984 219.567789,2.2489019 C222.341435,0.749633968 225.414934,7.10542736e-15 228.938214,7.10542736e-15 C231.561933,7.10542736e-15 233.960761,0.449780381 236.1347,1.27437775 C238.308638,2.09897511 240.182723,3.37335286 241.681991,5.02254758 L239.433089,7.34641288 C236.734407,4.6477306 233.286091,3.29838946 229.088141,3.29838946 C226.314495,3.29838946 223.765739,3.89809663 221.516837,5.17247438 C219.267936,6.37188873 217.468814,8.09604685 216.194436,10.2699854 C214.920059,12.4439239 214.245388,14.917716 214.245388,17.5414348 C214.245388,20.2401171 214.920059,22.6389458 216.194436,24.8128843 C217.468814,26.9868228 219.192972,28.710981 221.441874,29.9103953 C223.690776,31.1847731 226.164568,31.7844802 228.938214,31.7844802 C232.461493,31.7844802 235.460029,30.8849195 237.933821,29.1607613 L237.933821,17.6163982 L238.008785,17.6163982 Z" id="Path"></path>
                    <polygon id="Path" points="8.47086384 45.727672 8.47086384 55.3979502 25.4125915 55.3979502 25.4125915 62.2196193 8.47086384 62.2196193 8.47086384 75.563104 1.42108547e-14 75.563104 1.42108547e-14 38.9060029 27.6614934 38.9060029 27.6614934 45.727672"></polygon>
                    <polygon id="Path" points="33.433675 38.9060029 41.9045388 38.9060029 41.9045388 75.4881406 33.433675 75.4881406"></polygon>
                    <polygon id="Path" points="84.1089312 38.9060029 84.1089312 75.4881406 77.1373353 75.4881406 58.9212299 53.2989751 58.9212299 75.4881406 50.5253294 75.4881406 50.5253294 38.9060029 57.4969253 38.9060029 75.7130307 61.0951684 75.7130307 38.9060029"></polygon>
                    <path d="M116.867936,67.6169839 L99.8512445,67.6169839 L96.6278184,75.4881406 L88.0070278,75.4881406 L104.349048,38.9060029 L112.744949,38.9060029 L129.086969,75.4881406 L120.166325,75.4881406 L116.867936,67.6169839 Z M114.169253,61.2450952 L108.397072,47.22694 L102.62489,61.2450952 L114.169253,61.2450952 Z" id="Shape"></path>
                    <polygon id="Path" points="166.343777 38.9060029 166.343777 75.4881406 159.372182 75.4881406 141.156076 53.2989751 141.156076 75.4881406 132.760176 75.4881406 132.760176 38.9060029 139.731772 38.9060029 157.947877 61.0951684 157.947877 38.9060029"></polygon>
                    <path d="M182.460908,73.689019 C179.462372,72.0398243 177.063543,69.7909224 175.339385,66.9423133 C173.615227,64.0937042 172.715666,60.7953148 172.715666,57.1970717 C172.715666,53.5988287 173.615227,50.3004392 175.339385,47.4518302 C177.063543,44.6032211 179.462372,42.3543192 182.460908,40.7051245 C185.459444,39.0559297 188.832796,38.3062958 192.65593,38.3062958 C195.804392,38.3062958 198.727965,38.8310395 201.27672,39.9554905 C203.825476,41.0799414 205.999414,42.6541728 207.723572,44.7531479 L202.251245,49.7756955 C199.777452,46.9270864 196.703953,45.5027818 193.030747,45.5027818 C190.781845,45.5027818 188.757833,46.0275256 186.958712,47.0020498 C185.15959,47.9765739 183.810249,49.4008785 182.835725,51.1250366 C181.861201,52.9241581 181.336457,54.9481698 181.336457,57.1970717 C181.336457,59.4459736 181.861201,61.4699854 182.835725,63.2691069 C183.810249,65.0682284 185.234553,66.4175695 186.958712,67.3920937 C188.68287,68.3666179 190.781845,68.8913616 193.030747,68.8913616 C196.703953,68.8913616 199.777452,67.4670571 202.251245,64.5434846 L207.723572,69.5660322 C205.999414,71.6650073 203.825476,73.314202 201.27672,74.438653 C198.727965,75.563104 195.804392,76.0878477 192.65593,76.0878477 C188.832796,76.0878477 185.459444,75.3382138 182.460908,73.689019 Z" id="Path"></path>
                    <polygon id="Path" points="241.681991 68.6664714 241.681991 75.4881406 213.345827 75.4881406 213.345827 38.9060029 241.007321 38.9060029 241.007321 45.727672 221.741728 45.727672 221.741728 53.6737921 238.758419 53.6737921 238.758419 60.270571 221.741728 60.270571 221.741728 68.7414348 241.681991 68.7414348"></polygon>
                </g>
            </g>
        </g>
    </g>
</svg>